<svg xmlns="http://www.w3.org/2000/svg" width="112" height="143.823" viewBox="0 0 112 143.823"><defs><style>.a{fill:#1d1d1d;}.b,.d{fill:#fff;}.c{fill:red;}.d{font-size:17px;font-family:GESSTwoBold-Bold, GE SS Two;font-weight:700;}.e{fill:#ffd500;}</style></defs><g transform="translate(-287.363 -161.113)"><g transform="translate(303.648 177.396)"><path class="a" d="M374.194,208.3c7.8,0,13.284,4.573,14.316,11.935a15.027,15.027,0,0,1-.693,7.158,14.2,14.2,0,0,1,6.769-1.626c3.8-8.163,3.569-18.323-.759-29.1-5.269-13.119-16.23-14.536-20.7-14.536a22.474,22.474,0,0,0-9.4,1.971,10.758,10.758,0,0,1,5.068,7.81c.752,5.091-1.857,12.088-11.683,15.054a64.259,64.259,0,0,1-18.581,2.742,61.924,61.924,0,0,1-15.145-1.837,42.592,42.592,0,0,0,2.82,8.219,35.219,35.219,0,0,0,8.726,11.877,40.86,40.86,0,0,1-2.959-10.615,2.456,2.456,0,0,1,3-2.745,36.267,36.267,0,0,0,7.358.649,52.512,52.512,0,0,0,20.72-4.365A28.308,28.308,0,0,1,374.194,208.3Z" transform="translate(-323.386 -182.125)"/><path class="a" d="M433.4,302.915a7.332,7.332,0,0,1-.795-3.508c-4.908,4.994-13.018,7.9-22.574,8.062a37.5,37.5,0,0,0,5.881.472,32.125,32.125,0,0,0,17.5-5Z" transform="translate(-372.078 -248.035)"/></g><path class="b" d="M445.753,195.529a2.865,2.865,0,1,1-2.865-2.865A2.866,2.866,0,0,1,445.753,195.529Z" transform="translate(-85.285 -10.651)"/><path class="c" d="M424.913,158.214c-1.491-2.017-3.732-1.982-5.051-.523a3.222,3.222,0,0,0,.23,4.552,3.189,3.189,0,0,0,1.831.813,29.114,29.114,0,0,1,4.955-.431,27.752,27.752,0,0,1,13,3.225s3.459-1.636,3.262-3.757a2.32,2.32,0,0,0-.816-1.716,2.432,2.432,0,0,0-1.767-.627,3.481,3.481,0,0,0-2.188.752,2.531,2.531,0,0,1-2.745.426,2.478,2.478,0,0,1-1.442-2.135,2.761,2.761,0,0,0-2.9-2.623,3.062,3.062,0,0,0-2.233,1.741,2.455,2.455,0,0,1-4.142.305Z" transform="translate(-73.488 9.861)"/><path class="b" d="M405.178,220.369a2.58,2.58,0,0,0-3.335-1.48,63.24,63.24,0,0,1-9.19,2.42c.357-.3,10.9-5.368,11.221-5.565a2.456,2.456,0,0,0-2.563-4.191c-.033.02-.733.437-2.031,1.083,1.646-2.967,2.562-5.86,1.235-8.449-1.219-2.375-3.762-3.363-6.763-3.811,1.825-7.984.88-17.038-2.894-26.436a28.849,28.849,0,0,0-7.823-11.333,7.551,7.551,0,0,0-6.171-13.709,7.672,7.672,0,0,0-7.1-3.937,7.154,7.154,0,0,0-4.415,1.88,7.875,7.875,0,0,0-10.408,1.254,8.118,8.118,0,0,0-.371,10.46c-2.952,1.3-7.931,4.447-6.267,7.216.969,1.612,2.635,1.09,3.289,1.09,2.69,0,4.459,2.45,4.816,4.87.488,3.307-1.421,7.575-8.244,9.635A59.344,59.344,0,0,1,331,183.9a52.305,52.305,0,0,1-17.346-2.725,2.455,2.455,0,0,0-3.353,2.489,44.286,44.286,0,0,0,3.838,13.424,39.748,39.748,0,0,0,12.551,15.669,30.306,30.306,0,0,1-4.3-11.2,38.18,38.18,0,0,1-3.714-6.362,42.592,42.592,0,0,1-2.82-8.219A61.926,61.926,0,0,0,331,188.811a64.259,64.259,0,0,0,18.581-2.742c9.826-2.966,12.435-9.963,11.683-15.054a10.757,10.757,0,0,0-5.067-7.81,27.982,27.982,0,0,1,9.4-1.971c4.468,0,15.43,1.417,20.7,14.536,3.5,8.724,4.321,17.041,2.491,24.224a21.764,21.764,0,0,0-7.674.863c-.022-.5-.063-1.007-.134-1.517-1.033-7.362-6.519-11.935-14.316-11.935a28.309,28.309,0,0,0-11.148,2.588,52.511,52.511,0,0,1-20.72,4.365c-7.411,0-8.008-1.511-9.583-.07a2.52,2.52,0,0,0-.771,2.166c.886,7.648,5.509,19.109,12.983,23.054-14.561-2.7-23.227-7.852-23.4-7.955a2.456,2.456,0,0,0-2.563,4.191,68.16,68.16,0,0,0,15.056,6.233,72.126,72.126,0,0,1-13.029-3.088,2.58,2.58,0,0,0-1.852,4.816,59.932,59.932,0,0,0,7.591,2.173H314.9a2.456,2.456,0,1,0,0,4.912h86.16a2.456,2.456,0,1,0,0-4.912h-4.954A59.912,59.912,0,0,0,403.7,223.7,2.58,2.58,0,0,0,405.178,220.369ZM378.6,159.547a27.752,27.752,0,0,0-13-3.225,29.107,29.107,0,0,0-4.955.431,3.189,3.189,0,0,1-1.831-.813,3.222,3.222,0,0,1-.23-4.552c1.32-1.459,3.56-1.494,5.051.523a2.455,2.455,0,0,0,4.142-.305,3.062,3.062,0,0,1,2.233-1.741,2.761,2.761,0,0,1,2.9,2.623,2.478,2.478,0,0,0,1.442,2.135,2.531,2.531,0,0,0,2.745-.426,3.482,3.482,0,0,1,2.188-.752,2.432,2.432,0,0,1,1.767.627,2.32,2.32,0,0,1,.816,1.716C382.063,157.911,378.6,159.547,378.6,159.547ZM388.829,204.9c1.616.06,5.3.275,6.736,1.031a.979.979,0,0,1,.672,1.016c-.047,1.535-3.154,7.288-5.142,9.086A89.351,89.351,0,0,1,379.96,219.1C374.09,215.571,374.4,204.379,388.829,204.9ZM357.47,194.5a23.479,23.479,0,0,1,9.194-2.184c5.32,0,8.765,2.809,9.452,7.707a10.373,10.373,0,0,1-.075,3.417,11.887,11.887,0,0,0-2.949,3.308,4.174,4.174,0,0,1-3.875-2.275,2.456,2.456,0,0,0-4.005-.446,3.41,3.41,0,0,1-5.327.11,2.525,2.525,0,0,1-.62-1.975,2.489,2.489,0,0,0-.98-2.331,2.549,2.549,0,0,0-2.744-.173c-1.5.685-3.808.582-4.906-.858a2.223,2.223,0,0,1-.474-1.656l-.112-.014A58.209,58.209,0,0,0,357.47,194.5Zm-27.553,4.534c1.321.132,2.968.237,4.88.237a56.167,56.167,0,0,0,10.493-1.018,7.216,7.216,0,0,0,1.442,3.529,8.168,8.168,0,0,0,5.4,3.081,11.05,11.05,0,0,0,2.616.05,7.7,7.7,0,0,0,1.38,2.389,8.484,8.484,0,0,0,5.379,2.914,8.025,8.025,0,0,0,5.157-1.085,9.2,9.2,0,0,0,3.612,2.162c-4.254,2.841-10.4,4.473-17.308,4.474h0a47.3,47.3,0,0,1-6.875-.506c8.19,4.04,18.51,3.818,23.248,2.075a9.806,9.806,0,0,0,2.579-1.261,12.309,12.309,0,0,0,.94,2.383c-3.964,2.111-8.27,2.686-13.776,2.675-9.577-.017-14.919-2.824-18.648-5.464C335.247,211.991,331.617,206.437,329.917,199.033Z" transform="translate(-12.209 16.163)"/><g transform="translate(352.627 231.912)"><text class="d" transform="translate(-9.264 66.024)"><tspan x="-55.148" y="0">وكبار المربيين</tspan><tspan y="0"> </tspan></text><text class="d" transform="translate(-11.264 42.024)"><tspan x="-52.666" y="0">صغار</tspan><tspan class="e" y="0">بـورصــة </tspan></text></g></g></svg>