<svg xmlns="http://www.w3.org/2000/svg" xmlns:xlink="http://www.w3.org/1999/xlink" width="176.894" height="49.839" viewBox="0 0 176.894 49.839"><defs><style>.a{fill:url(#a);}.b{fill:url(#b);}.c{fill:#42210b;}.d{fill:red;}.e{font-size:17px;font-family:GESSTwoBold-Bold, GE SS Two;font-weight:700;}.f{fill:#ffd500;}</style><linearGradient id="a" x1="0.454" y1="0.554" x2="1.027" y2="0.558" gradientUnits="objectBoundingBox"><stop offset="0" stop-color="#fff"/><stop offset="1" stop-color="#ffd500"/></linearGradient><linearGradient id="b" y1="0.5" x2="1" y2="0.5" gradientUnits="objectBoundingBox"><stop offset="0" stop-color="#fff"/><stop offset="0.208" stop-color="#fffffc"/><stop offset="0.343" stop-color="#fffff3"/><stop offset="0.458" stop-color="#ffffe4"/><stop offset="0.56" stop-color="#ffffcf"/><stop offset="0.655" stop-color="#ffffb4"/><stop offset="0.744" stop-color="#ffff92"/><stop offset="0.829" stop-color="#ffff6b"/><stop offset="0.91" stop-color="#ffff3c"/><stop offset="0.986" stop-color="#ffff0a"/><stop offset="1" stop-color="#ff0"/></linearGradient></defs><g transform="translate(-485.72 -513.023)"><g transform="translate(609.435 513.023)"><g transform="translate(3.273 9.079)"><path class="a" d="M351.716,196.716c4.348,0,7.407,2.55,7.983,6.656a8.38,8.38,0,0,1-.386,3.991,7.916,7.916,0,0,1,3.775-.906c2.12-4.552,1.99-10.218-.423-16.228-2.938-7.316-9.05-8.106-11.542-8.106a12.532,12.532,0,0,0-5.242,1.1,6,6,0,0,1,2.826,4.355c.419,2.839-1.036,6.741-6.515,8.395a35.833,35.833,0,0,1-10.362,1.529,34.532,34.532,0,0,1-8.445-1.024,23.75,23.75,0,0,0,1.572,4.583,19.629,19.629,0,0,0,4.866,6.623,22.783,22.783,0,0,1-1.65-5.919,1.369,1.369,0,0,1,1.67-1.531,20.219,20.219,0,0,0,4.1.362,29.282,29.282,0,0,0,11.554-2.434A15.8,15.8,0,0,1,351.716,196.716Z" transform="translate(-323.384 -182.122)"/><path class="b" d="M423.063,301.363a4.09,4.09,0,0,1-.443-1.956c-2.737,2.785-7.259,4.406-12.588,4.5a20.913,20.913,0,0,0,3.279.263,17.92,17.92,0,0,0,9.759-2.79Z" transform="translate(-388.868 -270.76)"/></g><path class="c" d="M443.217,194.262a1.6,1.6,0,1,1-1.6-1.6,1.6,1.6,0,0,1,1.6,1.6Z" transform="translate(-408.258 -181.01)"/><path class="d" d="M422.311,157.307a1.748,1.748,0,0,0-2.817-.292,1.8,1.8,0,0,0,.128,2.538,1.778,1.778,0,0,0,1.021.453,16.235,16.235,0,0,1,2.763-.241,15.476,15.476,0,0,1,7.252,1.8s1.929-.912,1.819-2.1a1.294,1.294,0,0,0-.455-.957,1.356,1.356,0,0,0-.985-.35,1.941,1.941,0,0,0-1.22.419,1.411,1.411,0,0,1-1.53.238,1.382,1.382,0,0,1-.8-1.191,1.54,1.54,0,0,0-1.617-1.463,1.707,1.707,0,0,0-1.245.971,1.369,1.369,0,0,1-2.31.17Z" transform="translate(-392.395 -153.425)"/><path class="c" d="M363.063,187.007a1.439,1.439,0,0,0-1.86-.825,35.279,35.279,0,0,1-5.125,1.349c.2-.168,6.078-2.994,6.257-3.1a1.37,1.37,0,1,0-1.429-2.337c-.018.011-.408.244-1.133.6.918-1.654,1.429-3.268.689-4.711-.68-1.325-2.1-1.875-3.772-2.125a24.783,24.783,0,0,0-1.614-14.742,16.086,16.086,0,0,0-4.362-6.319,4.211,4.211,0,0,0-3.441-7.645,4.278,4.278,0,0,0-3.959-2.2,3.989,3.989,0,0,0-2.461,1.048,4.391,4.391,0,0,0-5.8.7,4.527,4.527,0,0,0-.207,5.833c-1.646.726-4.423,2.48-3.495,4.024.54.9,1.469.608,1.834.608a2.946,2.946,0,0,1,2.686,2.716c.272,1.844-.792,4.224-4.6,5.373a33.092,33.092,0,0,1-9.57,1.412,29.172,29.172,0,0,1-9.673-1.519,1.369,1.369,0,0,0-1.87,1.388,24.7,24.7,0,0,0,2.14,7.486,22.165,22.165,0,0,0,7,8.738,16.9,16.9,0,0,1-2.4-6.246,21.292,21.292,0,0,1-2.071-3.548,23.753,23.753,0,0,1-1.572-4.583,34.532,34.532,0,0,0,8.445,1.024,35.843,35.843,0,0,0,10.367-1.531c5.473-1.652,6.929-5.554,6.509-8.393a6,6,0,0,0-2.826-4.354,15.6,15.6,0,0,1,5.242-1.1c2.492,0,8.6.79,11.542,8.106,1.954,4.865,2.409,9.5,1.389,13.508a12.137,12.137,0,0,0-4.279.481c-.012-.28-.035-.562-.075-.846-.576-4.105-3.635-6.656-7.983-6.656a15.784,15.784,0,0,0-6.216,1.443,29.282,29.282,0,0,1-11.554,2.434c-4.133,0-4.466-.843-5.344-.039a1.406,1.406,0,0,0-.43,1.208c.494,4.265,3.072,10.656,7.24,12.855a42.5,42.5,0,0,1-13.048-4.437,1.37,1.37,0,0,0-1.429,2.337,38,38,0,0,0,8.4,3.476,40.245,40.245,0,0,1-7.265-1.722,1.439,1.439,0,1,0-1.033,2.686,33.452,33.452,0,0,0,4.233,1.211h-2.416a1.369,1.369,0,1,0,0,2.739h48.047a1.369,1.369,0,1,0,0-2.739H358a33.525,33.525,0,0,0,4.233-1.212A1.439,1.439,0,0,0,363.063,187.007Zm-14.818-33.916a15.476,15.476,0,0,0-7.252-1.8,16.232,16.232,0,0,0-2.763.241,1.778,1.778,0,0,1-1.021-.453,1.8,1.8,0,0,1-.128-2.538,1.748,1.748,0,0,1,2.817.292,1.369,1.369,0,0,0,2.31-.17,1.707,1.707,0,0,1,1.245-.971,1.54,1.54,0,0,1,1.617,1.463,1.382,1.382,0,0,0,.8,1.191,1.411,1.411,0,0,0,1.53-.238,1.942,1.942,0,0,1,1.22-.419,1.356,1.356,0,0,1,.985.35,1.294,1.294,0,0,1,.455.957C350.173,152.178,348.245,153.091,348.245,153.091Zm5.7,25.29a12.152,12.152,0,0,1,3.756.575.546.546,0,0,1,.375.567,13.061,13.061,0,0,1-2.867,5.067A49.824,49.824,0,0,1,349,186.3C345.727,184.331,345.9,178.091,353.946,178.381Zm-17.487-5.8a13.093,13.093,0,0,1,5.127-1.218c2.967,0,4.888,1.567,5.271,4.3a5.785,5.785,0,0,1-.042,1.905,6.628,6.628,0,0,0-1.644,1.845,2.327,2.327,0,0,1-2.161-1.268,1.369,1.369,0,0,0-2.233-.249,1.9,1.9,0,0,1-2.97.061,1.409,1.409,0,0,1-.346-1.1,1.388,1.388,0,0,0-.546-1.3,1.421,1.421,0,0,0-1.53-.1,2.359,2.359,0,0,1-2.736-.479,1.239,1.239,0,0,1-.264-.924l-.062-.008a32.463,32.463,0,0,0,4.138-1.467Zm-15.365,2.528c.736.074,1.655.132,2.721.132a31.323,31.323,0,0,0,5.851-.568,4.024,4.024,0,0,0,.8,1.968,4.555,4.555,0,0,0,3.011,1.718,6.162,6.162,0,0,0,1.459.028,4.3,4.3,0,0,0,.77,1.332,4.731,4.731,0,0,0,3,1.625,4.475,4.475,0,0,0,2.876-.605,5.132,5.132,0,0,0,2.014,1.205,17.66,17.66,0,0,1-9.652,2.495h0a26.372,26.372,0,0,1-3.834-.282c4.567,2.253,10.321,2.129,12.964,1.157a5.468,5.468,0,0,0,1.438-.7,6.866,6.866,0,0,0,.524,1.329,15.6,15.6,0,0,1-7.682,1.491c-5.341-.01-8.32-1.575-10.4-3.047A15.057,15.057,0,0,1,321.095,175.109Z" transform="translate(-309.981 -144.951)"/></g><text class="e" transform="translate(485.72 555.863)"><tspan x="0" y="0">وكبار المربيين</tspan></text><text class="e" transform="translate(486.394 531.853)"><tspan x="0" y="0">صغار</tspan><tspan class="f" y="0">بورصـــة </tspan></text></g></svg>